<svg fill="#5f0ec6" xmlns="http://www.w3.org/2000/svg" viewBox="0 0 60 60">
  <defs>
    <style>
      .cls-1 {
        fill: #5f0ec6;
      }
    </style>
  </defs>
  <title>Asset 7</title>
  <g id="Layer_2" data-name="Layer 2">
    <g id="Layer_1-2" data-name="Layer 1">
      <path class="cls-1" d="M30,0A30,30,0,1,0,60,30,30,30,0,0,0,30,0ZM24.28,29.14a1.39,1.39,0,1,1,1.39,1.39A1.39,1.39,0,0,1,24.28,29.14Zm15.82,9A15.23,15.23,0,0,1,30,41.84a16.16,16.16,0,0,1-3.33-.35l-.15,0a1.06,1.06,0,0,1,.58-2,14,14,0,0,0,2.89.3c6.74,0,12.22-4.74,12.22-10.58S36.75,18.56,30,18.56,17.79,23.31,17.79,29.14a9.62,9.62,0,0,0,2.67,6.6,1.07,1.07,0,0,1,.21,1.09,7,7,0,0,1-1.15,2A6.26,6.26,0,0,0,22.25,38a1.06,1.06,0,1,1,1.09,1.82,9,9,0,0,1-5.76,1.06,1.42,1.42,0,0,1-.58-2.6,4.17,4.17,0,0,0,1.43-1.66,11.79,11.79,0,0,1-2.77-7.51,11.94,11.94,0,0,1,4.25-9A15.23,15.23,0,0,1,30,16.44a15.23,15.23,0,0,1,10.09,3.67v.06a12,12,0,0,1,1.51,1.51A11.71,11.71,0,0,1,40.1,38.17Zm-11.5-9A1.39,1.39,0,1,1,30,30.53,1.39,1.39,0,0,1,28.6,29.14Zm4.33,0a1.39,1.39,0,1,1,1.39,1.39A1.39,1.39,0,0,1,32.93,29.14Z"/>
    </g>
  </g>
</svg>
